<svg width="512" height="512" viewBox="0 0 512 512" fill="none" xmlns="http://www.w3.org/2000/svg" xmlns:xlink="http://www.w3.org/1999/xlink" class=""><rect id="r9" width="512" height="512" x="0" y="0" rx="128" fill="url(#ra)" stroke="#FFFFFF" stroke-width="0" stroke-opacity="100%" paint-order="stroke"></rect><clipPath id="clip"><use xlink:href="#r9"></use></clipPath><defs><radialGradient id="ra" cx="50%" cy="50%" r="100%" fx="50%" fy="0%" gradientUnits="objectBoundingBox"><stop stop-color="#1D1D1D"></stop><stop offset="1" stop-color="#000000"></stop></radialGradient><radialGradient id="rb" cx="0" cy="0" r="1" gradientUnits="userSpaceOnUse" gradientTransform="translate(256) rotate(90) scale(512)"><stop stop-color="white"></stop><stop offset="1" stop-color="white" stop-opacity="0"></stop></radialGradient></defs><svg xmlns="http://www.w3.org/2000/svg" width="365" height="365" viewBox="0 0 24 24" x="73.5" y="73.5" alignment-baseline="middle" style="color: rgb(230, 230, 230);"><path fill="currentColor" d="M8 5h2v2H8zM6 7h2v2H6zM4 9h2v2H4zm-2 2h2v2H2zm2 2h2v2H4zm2 2h2v2H6zm2 2h2v2H8zm8-12h-2v2h2zm2 2h-2v2h2zm2 2h-2v2h2zm2 2h-2v2h2zm-2 2h-2v2h2zm-2 2h-2v2h2zm-2 2h-2v2h2z"></path></svg></svg>